{"title":"The Legend of Zorro (2005) 720p BRRip HEVC x265 [Dual-Audio][Eng","uid":12069208,"size":1319480303,"categoryP":"video","categoryS":"movies","magnet":"?xt=urn:btih:92ed4ab8da193e68089643e068eb90dcd3abd651&amp;dn=The+Legend+of+Zorro+%282005%29+720p+BRRip+HEVC+x265+%5BDual-Audio%5D%5BEng&amp;tr=udp%3A%2F%2Ftracker.openbittorrent.com%3A80&amp;tr=udp%3A%2F%2Fopen.demonii.com%3A1337&amp;tr=udp%3A%2F%2Ftracker.coppersurfer.tk%3A6969&amp;tr=udp%3A%2F%2Fexodus.desync.com%3A6969","seeders":0,"leechers":7,"uploader":"praneet_gupta777","files":3,"time":1435467981,"description":"[center]\n[b][size=7]The Legend of Zorro (2005) 720p BRRip HEVC x265 [Dual-Audio][English 5.1+Hindi 5.1] Esubs [PKG][/size][/b]\n\n\n\n\n\n[img]http://extraimago.com/images/2015/06/27/5445The_Legend_Of_Zorro_Custom.jpg[/img]\n\n\n[img]http://extraimago.com/images/2015/06/27/Untitled6f07e.png[/img]\n\n\n\n[img]http://img9.uploadhouse.com/fileuploads/15981/15981250a2a3770f9f004bcdf00afac92833ebdb.png[/img]\n\n\n[quote]\n\n\nGeneral\nUnique ID                   : 218728109273757081920605490241055421714 (0xA48D806476AFF4CDA8AE13D54A12F512)\nComplete name               : G:The Legend of Zorro (2005) 720p BRRip HEVC x265 [Dual-Audio][English 5.1+Hindi 5.1] Esubs [PKG]The Legend of Zorro (2005) 720p BRRip HEVC x265 [Dual-Audio][English 5.1+Hindi 5.1] Esubs [PKG].mkv\nFormat                      : Matroska\nFormat version              : Version 2\nFile size                   : 1.22 GiB\nDuration                    : 2h 10mn\nOverall bit rate            : 1 344 Kbps\nEncoded date                : UTC 2015-06-16 03:58:05\nWriting application         : mkvmerge v7.7.0 ('Six Voices') 32bit built on Feb 28 2015 23:23:00\nDURATION                    : 02:00:26.380000000\nNUMBER_OF_FRAMES            : 923\nNUMBER_OF_BYTES             : 32553\n\nVideo\nID                          : 1\nFormat                      : HEVC\nFormat/Info                 : High Efficiency Video Coding\nCodec ID                    : V_MPEGH/ISO/HEVC\nDuration                    : 2h 10mn\nBit rate                    : 997 Kbps\nWidth                       : 1 280 pixels\nHeight                      : 544 pixels\nDisplay aspect ratio        : 2.35:1\nFrame rate mode             : Constant\nFrame rate                  : 23.976 fps\nBits/(Pixel*Frame)          : 0.060\nStream size                 : 930 MiB (74%)\nTitle                       : [PKG]\nDefault                     : Yes\nForced                      : No\n\nAudio #1\nID                          : 2\nFormat                      : AC-3\nFormat/Info                 : Audio Coding 3\nMode extension              : CM (complete main)\nFormat settings, Endianness : Big\nCodec ID                    : A_AC3\nDuration                    : 2h 10mn\nBit rate mode               : Constant\nBit rate                    : 160 Kbps\nChannel(s)                  : 6 channels\nChannel positions           : Front: L C R, Side: L R, LFE\nSampling rate               : 48.0 KHz\nBit depth                   : 16 bits\nCompression mode            : Lossy\nStream size                 : 149 MiB (12%)\nTitle                       : [PKG]\nLanguage                    : Hindi\nDefault                     : Yes\nForced                      : No\n\nAudio #2\nID                          : 3\nFormat                      : AC-3\nFormat/Info                 : Audio Coding 3\nMode extension              : CM (complete main)\nFormat settings, Endianness : Big\nCodec ID                    : A_AC3\nDuration                    : 2h 10mn\nBit rate mode               : Constant\nBit rate                    : 160 Kbps\nChannel(s)                  : 6 channels\nChannel positions           : Front: L C R, Side: L R, LFE\nSampling rate               : 48.0 KHz\nBit depth                   : 16 bits\nCompression mode            : Lossy\nStream size                 : 149 MiB (12%)\nTitle                       : [PKG]\nLanguage                    : English\nDefault                     : No\nForced                      : No\n\nText\nID                          : 4\nFormat                      : UTF-8\nCodec ID                    : S_TEXT/UTF8\nCodec ID/Info               : UTF-8 Plain Text\nTitle                       : [PKG]\nLanguage                    : English\nDefault                     : Yes\nForced                      : No\n\n\n[color=navy][size=6][b]SAMPLE WITHIN TORRENT[/b][/size][/color]\n\n\n\n\n\n[img]http://icons.iconarchive.com/icons/tribalmarkings/colorflow/256/screenshots-icon.png[/img]\n\n\n\n[img]http://extraimago.com/images/2015/06/27/vlcsnap-2015-06-27-22h49m58s248.png[/img]\n\n[img]http://extraimago.com/images/2015/06/27/vlcsnap-2015-06-27-22h51m13s228.png[/img]\n\n[img]http://extraimago.com/images/2015/06/27/vlcsnap-2015-06-27-22h51m24s86.png[/img]\n\n[img]http://extraimago.com/images/2015/06/27/vlcsnap-2015-06-27-22h53m29s62.png[/img]\n\n[img]http://extraimago.com/images/2015/06/27/vlcsnap-2015-06-27-22h53m48s245.png[/img]\n\n[img]http://extraimago.com/images/2015/06/27/vlcsnap-2015-06-27-22h54m28s118.png[/img]\n\n[img]http://extraimago.com/images/2015/06/27/TheLegendofZorro2005720pBRRipHEVCx265Dual-AudioEnglish5.1Hindi5.1PKG.mkv_thumbs_2015.06.27_22.47.05.jpg[/img]\n\n\n\n\n[b]Use a reputed media player that can play H.265 (HEVC : High Efficiency Video Coding) Video support.\nMedia Player Classic - Home Cinema and MPC-BE are recommended!.. VLC is OKay, but MPC variants are preferred.\nVLC and players like latest GOM, KMP/PotP with LAV can play HEVC.\n\nAnd also use latest K-Lite Codec Pack.\n\nIn Mobile, Android, Tabs, use a media player like VLC Player, MX Player... that can play H.265 :]\nFor more info, read the How_to_Play_ file inside the torrent.\n\n\nBe aware that all HEVC rips will not play on any stand-alone device. You can only watch this on a computer or on devices which have HEVC support.\nBe sure that you have the latest versions of VLC or Media Player Classic or SMPlayer. Earlier versions may not work[/b]\n\n\n\n[/center]","torrent":{"xt":"urn:btih:92ed4ab8da193e68089643e068eb90dcd3abd651","amp;dn":"The+Legend+of+Zorro+%282005%29+720p+BRRip+HEVC+x265+%5BDual-Audio%5D%5BEng","amp;tr":["udp%3A%2F%2Ftracker.openbittorrent.com%3A80","udp%3A%2F%2Fopen.demonii.com%3A1337","udp%3A%2F%2Ftracker.coppersurfer.tk%3A6969","udp%3A%2F%2Fexodus.desync.com%3A6969"],"infoHash":"92ed4ab8da193e68089643e068eb90dcd3abd651","infoHashBuffer":{"type":"Buffer","data":[146,237,74,184,218,25,62,104,8,150,67,224,104,235,144,220,211,171,214,81]},"announce":[],"urlList":[]}}